<svg xmlns="http://www.w3.org/2000/svg" width="250" height="67.977" viewBox="0 0 250 67.9766"><g fill="#FFF"><path d="M100.83 23.332c0 .722-.12 1.443-.42 2.165l-9.625 20.817c-1.204 2.526-2.407 3.73-4.693 3.73-2.347 0-3.73-1.144-4.874-3.73l-9.565-20.877c-.24-.662-.42-1.323-.42-2.045 0-2.166 1.743-3.55 3.608-3.55 1.445 0 2.89.842 3.49 2.226l7.762 18.53 7.7-18.53c.602-1.384 2.046-2.225 3.49-2.225 1.865 0 3.55 1.262 3.55 3.49zM105.46 11.24c0-2.888 1.986-4.814 4.813-4.814 2.948 0 4.813 1.926 4.813 4.813 0 2.947-1.865 4.933-4.813 4.933-2.827 0-4.813-1.986-4.813-4.934zm8.423 12.333v22.8c0 1.986-1.564 3.67-3.97 3.67-2.407 0-4.03-1.684-4.03-3.67v-22.8c0-1.986 1.623-3.67 4.03-3.67 2.406 0 3.97 1.684 3.97 3.67zM139.87 46.133c0 1.684-1.083 3.37-3.19 3.67-.9.12-2.225.24-3.367.24-6.197 0-8.844-2.226-8.844-9.144V27h-2.288c-1.744 0-3.128-1.324-3.128-3.31 0-2.045 1.384-3.248 3.128-3.248h2.287V15.39c0-1.985 1.563-3.67 4.03-3.67 2.406 0 3.97 1.685 3.97 3.67v5.054h4.933c1.806 0 3.13 1.203 3.13 3.25 0 1.984-1.324 3.308-3.13 3.308h-4.933v12.874c0 2.527 1.023 3.19 2.948 3.19.48 0 .902 0 1.564-.06 1.865-.12 2.888 1.502 2.888 3.127zM163.03 23.873c0 2.527-1.624 3.61-3.43 3.61h-.54c-2.83 0-5.716 2.767-5.716 8.182v10.71c0 1.984-1.564 3.67-3.97 3.67-2.408 0-4.03-1.686-4.03-3.67V23.03c0-1.744 1.382-3.127 3.427-3.127 2.107 0 3.13 1.383 3.37 3.128l.18 1.204c1.385-2.647 3.49-4.27 6.438-4.27h.662c2.587.12 3.61 1.924 3.61 3.91zM167.057 11.24c0-2.888 1.986-4.814 4.813-4.814 2.948 0 4.813 1.926 4.813 4.813 0 2.947-1.865 4.933-4.813 4.933-2.827 0-4.813-1.986-4.813-4.934zm8.423 12.333v22.8c0 1.986-1.565 3.67-3.97 3.67-2.407 0-4.032-1.684-4.032-3.67v-22.8c0-1.986 1.625-3.67 4.032-3.67 2.405 0 3.97 1.684 3.97 3.67zM212.838 31.213v15.16c0 1.986-1.565 3.67-3.97 3.67s-4.032-1.684-4.032-3.67V32.718c0-4.03-1.805-5.896-5.654-5.896-3.852 0-6.618 2.89-6.618 6.56v12.994c0 1.985-1.564 3.67-3.97 3.67-2.408 0-4.03-1.685-4.03-3.67V23.212c0-1.806 1.562-3.31 3.547-3.31 2.167 0 3.19 1.384 3.43 3.25l.182 1.563c2.105-2.948 5.474-4.872 10.227-4.872 7.52 0 10.888 4.33 10.888 11.37zM218.85 34.943c0-9.987 5.895-15.1 15.16-15.1s15.16 5.233 15.16 15.16c0 9.866-5.895 15.04-15.16 15.04s-15.16-5.173-15.16-15.1zm22.14.06c0-5.354-2.408-8.483-6.98-8.483-4.633 0-6.98 3.13-6.98 8.483 0 5.354 2.347 8.363 6.98 8.363 4.572 0 6.98-3.01 6.98-8.363z"/></g><path fill-rule="evenodd" clip-rule="evenodd" fill="#FFF" d="M25.428 31.687c.142.106.278.218.41.336 1.48 1.144 3.344 1.828 5.37 1.828 1.947 0 3.743-.628 5.193-1.69.224-.216.466-.412.722-.59.123-.11.242-.227.358-.346 1.515-1.546 2.45-3.65 2.45-5.97 0-4.75-3.905-8.598-8.72-8.598-4.817 0-8.72 3.85-8.72 8.597 0 2.32.933 4.424 2.448 5.97.158.162.32.316.49.464zm36.41-6.297c0-9.717-4.656-18.36-11.887-23.884-.243-.186-.49-.37-.738-.55-.159-.113-.323-.22-.497-.31-.99-.513-2.15-.753-3.378-.6-2.65.328-4.748 2.485-4.974 5.107-.135 1.565.38 3.008 1.307 4.102.245.288.54.528.85.748.263.187.52.382.776.58 4.504 3.52 7.397 8.956 7.397 15.06 0 1.03-.085 2.04-.243 3.026-.57 3.55-2.127 6.776-4.386 9.398-.238.277-.486.547-.74.81-.314.326-14.115 13.836-14.115 13.836S17.345 39.14 17.093 38.878c-.254-.264-.5-.533-.74-.81-2.258-2.622-3.816-5.848-4.386-9.4-.158-.984-.242-1.994-.242-3.024 0-6.083 2.87-11.502 7.346-15.02.417-.233.8-.515 1.145-.84 1.09-1.026 1.774-2.47 1.774-4.076 0-3.115-2.56-5.64-5.72-5.64-1.093 0-2.11.306-2.98.83-.305.186-.592.398-.857.634C5.223 7.057.58 15.688.58 25.39c0 8.496 3.562 16.17 9.29 21.657l21.34 20.93 20.907-20.524c.49-.453.968-.92 1.428-1.402l.035-.034-.014.012c5.13-5.4 8.27-12.657 8.27-20.638z"/></svg>