<?xml version="1.0" encoding="UTF-8"?>
<svg width="256px" height="73px" viewBox="0 0 256 73" version="1.1" xmlns="http://www.w3.org/2000/svg" xmlns:xlink="http://www.w3.org/1999/xlink">
    <!-- Generator: Sketch 3.7.2 (28276) - http://www.bohemiancoding.com/sketch -->
    <title>Logo</title>
    <desc>Created with Sketch.</desc>
    <defs>
        <filter x="-50%" y="-50%" width="200%" height="200%" filterUnits="objectBoundingBox" id="filter-1">
            <feOffset dx="0" dy="1" in="SourceAlpha" result="shadowOffsetOuter1"></feOffset>
            <feGaussianBlur stdDeviation="1" in="shadowOffsetOuter1" result="shadowBlurOuter1"></feGaussianBlur>
            <feColorMatrix values="0 0 0 0 0.482352941   0 0 0 0 0.482352941   0 0 0 0 0.482352941  0 0 0 0.5 0" type="matrix" in="shadowBlurOuter1" result="shadowMatrixOuter1"></feColorMatrix>
            <feMerge>
                <feMergeNode in="shadowMatrixOuter1"></feMergeNode>
                <feMergeNode in="SourceGraphic"></feMergeNode>
            </feMerge>
        </filter>
        <polygon id="path-2" points="30.8162191 68.5959801 0 68.5959801 0 0.20156045 61.6324383 0.20156045 61.6324383 68.5959801"></polygon>
        <text id="text-4" font-family="CorporativeSansRdAlt-Bold, CorporativeSansRdAlt" font-size="60.525015" font-weight="bold" fill="#FFFFFF">
            <tspan x="72.9438944" y="61">vitrino</tspan>
        </text>
        <filter x="-50%" y="-50%" width="200%" height="200%" filterUnits="objectBoundingBox" id="filter-5">
            <feOffset dx="0" dy="1" in="SourceAlpha" result="shadowOffsetOuter1"></feOffset>
            <feGaussianBlur stdDeviation="1" in="shadowOffsetOuter1" result="shadowBlurOuter1"></feGaussianBlur>
            <feColorMatrix values="0 0 0 0 0.482352941   0 0 0 0 0.482352941   0 0 0 0 0.482352941  0 0 0 0.5 0" type="matrix" in="shadowBlurOuter1"></feColorMatrix>
        </filter>
    </defs>
    <g id="Page-1" stroke="none" stroke-width="1" fill="none" fill-rule="evenodd">
        <g id="Map" transform="translate(-56.000000, -24.000000)">
            <g id="Logo" transform="translate(58.000000, 14.000000)">
                <g id="Page-1" filter="url(#filter-1)" transform="translate(0.000000, 10.943237)">
                    <g id="Group-3" transform="translate(0.000000, 0.126689)">
                        <mask id="mask-3" fill="white">
                            <use xlink:href="#path-2"></use>
                        </mask>
                        <g id="Clip-2"></g>
                        <path d="M61.6324383,25.7471237 C61.6324383,15.9710478 56.9480138,7.27445599 49.6730414,1.71686876 C49.4277017,1.52946061 49.1800317,1.34500635 48.9293658,1.16481882 C48.7699116,1.04994517 48.6047983,0.941635726 48.4296983,0.851049647 C47.4326935,0.33510285 46.2672465,0.0938681832 45.0305611,0.247142454 C42.3654459,0.577978569 40.2532605,2.74777773 40.0258968,5.38658959 C39.8900777,6.96134324 40.4093857,8.41268977 41.341477,9.51317934 C41.5871496,9.80298915 41.8844202,10.0448802 42.1953392,10.2657659 C42.4609852,10.4544869 42.7209721,10.6504285 42.9772972,10.8506368 C47.5089252,14.3907146 50.4193802,19.8603414 50.4193802,26.003456 C50.4193802,27.0396164 50.3344934,28.0554276 50.1753721,29.0472796 C49.6021359,32.6201783 48.0345581,35.8651948 45.7625857,38.5033503 C45.5222393,38.7823291 45.2735706,39.0537592 45.0179113,39.318625 C44.7016661,39.6465072 30.8161692,53.2396704 30.8161692,53.2396704 C30.8161692,53.2396704 16.8674233,39.5808651 16.6144271,39.318625 C16.3587678,39.053431 16.1100991,38.7823291 15.8697527,38.5030221 C13.5981131,35.8651948 12.0302025,32.6201783 11.4569663,29.0472796 C11.297845,28.0554276 11.2129582,27.0396164 11.2129582,26.003456 C11.2129582,19.8833161 14.1017753,14.4310844 18.604442,10.8896939 C19.0242159,10.6566645 19.4100351,10.3724342 19.7559076,10.0468495 C20.8541108,9.01331485 21.5415281,7.55934265 21.5415281,5.94454732 C21.5415281,2.81013771 18.9642958,0.268804343 15.7851987,0.268804343 C14.6856639,0.268804343 13.662028,0.578306779 12.7881924,1.10541273 C12.4796036,1.29183626 12.1906553,1.50517304 11.9240106,1.74345381 C4.66901163,7.30235388 -9.98669225e-05,15.9864737 -9.98669225e-05,25.7471237 C-9.98669225e-05,34.2953643 3.58245952,42.0168429 9.34511382,47.5376706 L30.8161692,68.5959801 L51.8518048,47.9459644 C52.3458132,47.4907365 52.8261731,47.0213956 53.2888898,46.5353159 L53.3241761,46.5005256 C53.3198486,46.5044642 53.3148552,46.5080745 53.3105276,46.512013 C58.4716502,41.0798022 61.6324383,33.7777765 61.6324383,25.7471237 Z M24.9990874,32.0832917 C25.1418971,32.1896319 25.2790477,32.302208 25.410872,32.4210202 C26.9008865,33.5720542 28.7763873,34.2603115 30.8163356,34.2603115 C32.7733944,34.2603115 34.5806528,33.62785 36.0400415,32.5598532 C36.2637434,32.3422497 36.5070858,32.144667 36.7650753,31.9664488 C36.8889103,31.8538726 37.0087506,31.7370297 37.1255949,31.6175611 C38.6502299,30.0615154 39.5899776,27.9445582 39.5899776,25.6099974 C39.5899776,20.8325663 35.6618787,16.9596832 30.8163356,16.9596832 C25.9704597,16.9596832 22.0423608,20.8325663 22.0423608,25.6099974 C22.0423608,27.9445582 22.9821085,30.0615154 24.5067435,31.6175611 C24.6648661,31.7790406 24.8289808,31.9346124 24.9990874,32.0832917 Z" id="Combined-Shape" fill="#FEFEFE" mask="url(#mask-3)"></path>
                    </g>
                </g>
                <g id="vitrino" fill-opacity="1" fill="#FFFFFF">
                    <use filter="url(#filter-5)" xlink:href="#text-4"></use>
                    <use xlink:href="#text-4"></use>
                </g>
            </g>
        </g>
    </g>
</svg>